<?xml version="1.0" standalone="no"?>
<!DOCTYPE svg PUBLIC "-//W3C//DTD SVG 20010904//EN"
 "http://www.w3.org/TR/2001/REC-SVG-20010904/DTD/svg10.dtd">
<svg version="1.0" xmlns="http://www.w3.org/2000/svg"
 width="180.000000pt" height="180.000000pt" viewBox="0 0 180.000000 180.000000"
 preserveAspectRatio="xMidYMid meet">

<g transform="translate(0.000000,180.000000) scale(0.100000,-0.100000)"
fill="#000000" stroke="none">
<path d="M0 900 l0 -900 900 0 900 0 0 900 0 900 -900 0 -900 0 0 -900z m620
445 c0 -32 29 -61 77 -75 67 -20 254 -32 394 -27 l137 6 12 -95 c6 -53 10 -97
8 -98 -2 -1 -52 -12 -113 -24 -60 -12 -128 -27 -150 -34 -40 -12 -40 -12 51
-19 134 -10 130 -7 143 -95 18 -124 19 -121 -41 -126 -29 -3 -75 -13 -103 -23
-73 -26 -79 -28 -87 -27 -4 1 -22 -7 -40 -18 -22 -13 -27 -21 -17 -24 8 -2
104 -9 214 -15 110 -6 249 -19 308 -28 122 -19 112 -9 121 -130 5 -74 -5 -99
-27 -69 -11 14 -78 33 -117 34 -8 0 -41 7 -74 16 -33 9 -73 14 -91 10 -18 -3
-42 -1 -52 5 -14 7 -23 7 -30 0 -8 -8 -17 -7 -32 0 -11 6 -31 9 -45 5 -17 -4
-27 -1 -34 12 -9 16 -12 16 -28 4 -13 -12 -56 -15 -203 -16 -102 -1 -218 -4
-258 -7 -81 -7 -72 -16 -93 89 -7 33 -10 68 -9 78 3 11 43 30 132 61 70 24
139 50 155 58 15 8 45 22 67 32 22 10 35 19 29 22 -12 4 -230 -31 -255 -41
-12 -5 -21 11 -42 83 -29 98 -32 111 -18 111 5 0 44 16 88 36 43 20 98 45 123
56 91 40 95 43 74 46 -84 12 -135 27 -152 46 -28 30 -55 206 -32 206 6 0 10
-11 10 -25z"/>
</g>
</svg>
